<svg xmlns="http://www.w3.org/2000/svg" width="1200" height="630" fill="none"><defs><linearGradient id="a" x1="0%" x2="100%" y1="0%" y2="100%"><stop offset="0%" style="stop-color:#667eea;stop-opacity:1"/><stop offset="100%" style="stop-color:#764ba2;stop-opacity:1"/></linearGradient></defs><path fill="url(#a)" d="M0 0h1200v630H0z"/><defs><pattern id="b" width="40" height="40" patternUnits="userSpaceOnUse"><path stroke="rgba(255,255,255,0.1)" d="M40 0H0v40"/></pattern></defs><path fill="url(#b)" d="M0 0h1200v630H0z"/><text x="600" y="200" fill="#fff" font-family="Arial, sans-serif" font-size="48" font-weight="bold" text-anchor="middle">
    KIRO IDE
  </text><text x="600" y="250" fill="rgba(255,255,255,0.9)" font-family="Arial, sans-serif" font-size="24" text-anchor="middle">
    El IDE con IA que cambia las reglas del juego
  </text><rect width="600" height="280" x="300" y="300" fill="rgba(0,0,0,0.3)" stroke="rgba(255,255,255,0.2)" rx="8"/><rect width="600" height="40" x="300" y="300" fill="rgba(0,0,0,0.5)" rx="8"/><circle cx="320" cy="320" r="6" fill="#ff5f57"/><circle cx="340" cy="320" r="6" fill="#ffbd2e"/><circle cx="360" cy="320" r="6" fill="#28ca42"/><rect width="200" height="8" x="320" y="360" fill="rgba(255,255,255,0.6)" rx="4"/><rect width="150" height="8" x="320" y="380" fill="rgba(255,255,255,0.4)" rx="4"/><rect width="180" height="8" x="320" y="400" fill="rgba(255,255,255,0.5)" rx="4"/><rect width="120" height="8" x="320" y="420" fill="rgba(255,255,255,0.3)" rx="4"/><circle cx="800" cy="450" r="30" fill="rgba(255,255,255,0.2)" stroke="rgba(255,255,255,0.4)" stroke-width="2"/><text x="800" y="458" fill="#fff" font-family="Arial, sans-serif" font-size="20" text-anchor="middle">AI</text><rect width="80" height="30" x="320" y="480" fill="rgba(102, 126, 234, 0.8)" rx="15"/><text x="360" y="500" fill="#fff" font-family="Arial, sans-serif" font-size="12" text-anchor="middle">SPEC</text><rect width="80" height="30" x="420" y="480" fill="rgba(118, 75, 162, 0.8)" rx="15"/><text x="460" y="500" fill="#fff" font-family="Arial, sans-serif" font-size="12" text-anchor="middle">DESIGN</text><rect width="80" height="30" x="520" y="480" fill="rgba(102, 126, 234, 0.6)" rx="15"/><text x="560" y="500" fill="#fff" font-family="Arial, sans-serif" font-size="12" text-anchor="middle">TASKS</text></svg>