<?xml version="1.0" standalone="no"?>
<!DOCTYPE svg PUBLIC "-//W3C//DTD SVG 20010904//EN"
 "http://www.w3.org/TR/2001/REC-SVG-20010904/DTD/svg10.dtd">
<svg version="1.0" xmlns="http://www.w3.org/2000/svg"
 width="500.000000pt" height="500.000000pt" viewBox="0 0 500.000000 500.000000"
 preserveAspectRatio="xMidYMid meet">

<g transform="translate(0.000000,500.000000) scale(0.100000,-0.100000)"
fill="#000000" stroke="none">
<path d="M2265 4274 c-82 -12 -241 -50 -330 -79 -525 -171 -952 -597 -1130
-1127 -71 -212 -80 -274 -80 -553 0 -277 13 -372 76 -566 40 -123 153 -354
223 -453 252 -360 619 -619 1021 -719 192 -48 302 -60 505 -54 277 9 472 55
707 167 520 248 880 712 995 1284 30 146 32 488 5 633 -138 733 -672 1287
-1392 1444 -84 18 -138 22 -335 24 -129 2 -248 1 -265 -1z m413 -115 c250 -27
454 -95 666 -221 442 -262 734 -700 807 -1209 19 -135 15 -375 -10 -511 -102
-575 -492 -1051 -1043 -1272 -307 -123 -677 -145 -1011 -60 -637 161 -1105
665 -1234 1329 -27 143 -25 455 5 602 73 360 261 690 527 925 360 317 828 468
1293 417z"/>
<path d="M2530 3920 c0 -33 -3 -60 -6 -60 -4 0 -38 25 -76 56 -38 31 -71 54
-73 52 -3 -2 -2 -57 2 -121 6 -114 7 -117 30 -117 22 0 23 4 23 60 0 54 10 75
24 52 3 -4 32 -30 65 -56 l61 -47 0 120 0 121 -25 0 c-24 0 -25 -3 -25 -60z"/>
<path d="M2190 3938 c0 -7 10 -61 21 -120 22 -107 27 -116 62 -102 12 4 12 18
-4 97 -29 143 -27 137 -54 137 -14 0 -25 -6 -25 -12z"/>
<path d="M2743 3916 c-42 -36 -59 -87 -44 -135 17 -58 50 -83 113 -85 29 -1
59 -5 66 -9 7 -5 14 -3 17 5 5 15 24 99 25 109 0 6 -78 29 -99 29 -23 0 -11
-40 14 -46 19 -5 23 -9 15 -19 -21 -25 -51 -25 -76 0 -29 30 -31 64 -3 99 25
32 71 35 92 6 14 -20 15 -20 36 -3 l22 18 -25 24 c-17 16 -41 25 -74 29 -41 3
-52 0 -79 -22z"/>
<path d="M1930 3863 c-25 -8 -46 -16 -48 -18 -5 -5 82 -225 90 -225 3 0 27 9
52 20 79 33 107 110 66 178 -19 31 -72 63 -102 62 -7 -1 -33 -8 -58 -17z m104
-65 c9 -12 16 -35 16 -50 0 -30 -37 -76 -49 -61 -7 7 -51 119 -51 129 0 2 15
4 34 4 25 0 39 -7 50 -22z"/>
<path d="M3121 3703 l-61 -98 22 -18 c22 -18 22 -18 46 22 24 40 24 40 52 26
41 -21 76 -19 100 7 22 24 26 58 10 88 -9 17 -87 70 -103 70 -3 0 -33 -44 -66
-97z m122 -18 c-6 -17 -31 -19 -52 -6 -12 8 -12 14 4 37 l18 28 18 -23 c10
-12 15 -29 12 -36z"/>
<path d="M1648 3709 c-60 -44 -61 -137 -2 -188 64 -56 158 -37 188 39 21 54 8
108 -35 144 -39 33 -110 36 -151 5z m116 -50 c48 -38 22 -119 -39 -119 -59 0
-90 91 -43 124 30 21 50 20 82 -5z"/>
<path d="M3352 3548 l-81 -93 22 -17 c12 -9 24 -14 28 -10 3 4 38 44 79 90
l73 83 -20 21 -20 20 -81 -94z"/>
<path d="M1411 3495 c-80 -92 -13 -229 102 -209 45 7 123 72 115 96 -11 32
-34 30 -70 -6 -42 -42 -70 -45 -103 -11 -36 35 -29 79 18 117 18 14 19 19 8
32 -20 24 -36 20 -70 -19z"/>
<path d="M2300 3523 c-281 -48 -553 -238 -703 -493 -58 -97 -65 -120 -38 -120
14 0 27 15 45 51 120 238 350 427 607 499 282 78 581 27 824 -140 122 -85 256
-240 313 -362 12 -27 23 -38 39 -38 21 0 22 2 11 28 -24 54 -91 158 -144 224
-131 159 -321 278 -533 334 -81 21 -114 24 -245 23 -83 -1 -162 -4 -176 -6z"/>
<path d="M3542 3497 c-9 -10 -7 -19 4 -35 14 -20 12 -24 -56 -79 -38 -31 -70
-60 -70 -63 0 -4 6 -15 14 -25 12 -17 18 -15 88 43 74 60 75 61 94 41 17 -17
22 -18 39 -5 18 13 16 17 -34 75 -56 65 -62 68 -79 48z"/>
<path d="M2460 3072 l0 -108 -138 -12 c-136 -12 -299 -40 -355 -61 -46 -18
-57 -14 -57 19 l0 30 75 0 75 0 0 80 0 80 -73 0 c-41 0 -78 5 -84 11 -7 7 -19
9 -27 6 -13 -5 -16 -27 -16 -135 l0 -129 -54 -37 c-98 -67 -96 -52 -48 -441
24 -191 48 -348 57 -364 65 -126 338 -211 675 -211 303 0 577 78 653 186 25
36 29 57 62 322 19 156 35 319 35 362 l0 80 -40 39 c-22 21 -53 44 -70 51 -27
11 -30 17 -30 56 l0 44 75 0 75 0 0 80 0 80 -75 0 c-43 0 -75 4 -75 10 0 6 -9
10 -20 10 -19 0 -20 -7 -20 -120 0 -130 0 -131 -57 -109 -71 27 -343 69 -445
69 l-48 0 0 40 0 40 75 0 75 0 0 70 0 70 -100 0 -100 0 0 -108z m160 48 c0
-30 -1 -30 -55 -30 -54 0 -55 0 -55 30 0 30 1 30 55 30 54 0 55 0 55 -30z
m-602 -97 c-3 -26 -7 -28 -55 -31 l-53 -3 0 30 c0 31 0 31 56 31 54 0 55 0 52
-27z m1192 -3 c0 -30 -1 -30 -55 -30 -54 0 -55 0 -55 30 0 30 1 30 55 30 54 0
55 0 55 -30z m-461 -120 c35 -5 66 -11 69 -15 3 -3 -1 -18 -10 -33 -19 -30 -7
-29 -198 -13 -118 9 -339 2 -403 -14 -20 -5 -28 -1 -45 27 l-21 33 29 8 c95
25 425 29 579 7z m-634 -61 c12 -23 13 -30 3 -33 -7 -3 -47 -14 -88 -26 -77
-23 -178 -69 -219 -101 -33 -27 -41 -24 -41 15 0 42 46 86 129 124 61 28 182
62 194 55 4 -2 14 -18 22 -34z m892 5 c79 -27 138 -61 171 -99 33 -37 37 -51
23 -73 -6 -10 -22 -4 -69 26 -60 38 -160 79 -249 102 -49 12 -51 17 -23 53 18
22 24 24 59 16 22 -5 61 -16 88 -25z m-275 -61 l28 -8 -47 -71 -46 -70 -184 0
-184 1 -45 69 c-24 38 -42 71 -40 73 20 21 453 26 518 6z m-527 -83 c25 -39
45 -74 45 -78 0 -4 -27 -13 -59 -20 -32 -7 -84 -26 -116 -43 l-57 -30 -51 17
c-58 18 -147 63 -147 74 0 26 123 89 243 125 45 13 85 24 90 24 4 1 27 -31 52
-69z m693 50 c125 -35 270 -109 256 -131 -8 -14 -112 -65 -161 -79 -39 -12
-45 -11 -87 14 -26 15 -79 35 -119 45 -39 10 -71 22 -70 25 6 22 90 145 98
146 6 0 43 -9 83 -20z m-993 -231 c38 -16 55 -28 55 -41 0 -27 -26 -23 -108
17 -66 31 -72 37 -72 64 l0 30 35 -23 c19 -13 60 -34 90 -47z m715 56 c0 -6
-54 -10 -140 -11 -130 -1 -151 2 -133 20 11 11 273 2 273 -9z m-336 -26 c-85
-32 -156 -48 -176 -40 -22 8 -21 9 17 25 67 29 148 45 164 32 11 -8 10 -11 -5
-17z m488 10 c20 -5 54 -17 75 -25 36 -16 37 -17 15 -25 -29 -11 -191 40 -185
58 5 13 13 12 95 -8z m416 -1 c-3 -24 -54 -58 -126 -82 -42 -15 -43 -15 -40 6
2 13 17 26 43 36 22 9 56 26 75 38 44 29 52 29 48 2z m-493 -59 c39 -13 38
-13 -75 -22 -111 -9 -387 -1 -376 11 31 30 364 38 451 11z m275 -33 c0 -21 -7
-25 -77 -39 -43 -9 -104 -19 -135 -23 -54 -6 -58 -5 -58 14 0 18 8 22 58 27
43 5 192 36 210 44 1 1 2 -10 2 -23z m-885 0 c33 -8 88 -18 123 -22 53 -6 62
-9 62 -27 0 -18 -4 -19 -62 -13 -81 8 -168 26 -190 37 -21 11 -24 39 -5 39 6
0 39 -7 72 -14z m1070 -207 c-14 -116 -30 -220 -35 -229 -12 -22 -77 -80 -90
-80 -6 0 -11 84 -12 203 -3 200 -3 202 -25 205 l-23 3 -2 -222 -3 -223 -30 -9
c-61 -18 -191 -46 -212 -47 l-23 0 0 220 c0 213 -1 220 -20 220 -19 0 -20 -7
-20 -225 0 -218 -1 -225 -20 -225 -19 0 -20 7 -20 128 0 139 -10 172 -65 208
-53 35 -147 13 -178 -40 -7 -12 -14 -78 -17 -156 -5 -127 -6 -135 -25 -135
-19 0 -20 8 -23 223 -2 214 -3 222 -22 222 -19 0 -20 -7 -20 -220 l0 -220 -24
0 c-35 0 -216 48 -232 61 -11 9 -14 55 -14 225 0 207 -1 214 -20 214 -19 0
-20 -7 -20 -205 0 -148 -3 -205 -12 -205 -17 0 -76 48 -90 73 -11 19 -69 437
-63 445 2 2 20 -5 42 -16 190 -97 654 -135 988 -82 100 16 252 58 303 84 26
13 48 23 50 21 2 -2 -8 -99 -23 -216z m-497 154 c-3 -16 -19 -18 -173 -18
-154 0 -170 2 -173 18 -3 16 10 17 173 17 163 0 176 -1 173 -17z m-111 -277
l28 -24 0 -134 0 -133 -32 -3 -32 -3 -3 113 c-3 105 -4 113 -23 113 -19 0 -20
-8 -23 -113 l-3 -113 -27 3 -27 3 -3 115 c-1 63 0 125 3 138 15 62 90 82 142
38z"/>
<path d="M3341 2021 c-118 -233 -361 -426 -626 -497 -56 -15 -105 -19 -245
-19 -164 0 -180 2 -264 28 -90 29 -175 66 -243 108 -128 77 -279 238 -346 366
-25 49 -37 63 -55 63 l-22 0 26 -52 c110 -218 310 -401 535 -491 304 -121 641
-88 924 91 133 85 284 250 354 389 37 71 37 73 11 73 -14 0 -28 -17 -49 -59z"/>
<path d="M1393 1862 c-51 -31 -93 -61 -93 -67 0 -5 5 -17 10 -25 8 -13 15 -12
51 9 34 19 43 21 50 10 22 -38 35 -50 52 -43 21 8 22 23 1 53 -15 21 -15 24 1
39 16 16 18 16 30 -3 39 -56 39 -56 58 -42 18 12 17 16 -15 70 -18 31 -37 56
-43 56 -5 0 -52 -26 -102 -57z"/>
<path d="M3446 1844 c-25 -41 -44 -79 -41 -85 12 -19 41 -8 58 21 10 17 21 30
25 30 4 0 29 -43 55 -96 l48 -96 55 87 c30 48 53 89 52 90 -2 1 -13 5 -24 9
-18 5 -26 -1 -47 -36 l-25 -43 -48 98 c-27 53 -51 97 -55 97 -3 0 -27 -34 -53
-76z"/>
<path d="M1525 1678 c-64 -50 -68 -136 -9 -188 58 -50 136 -38 181 29 37 55
24 128 -29 165 -34 24 -109 21 -143 -6z m106 -39 c45 -23 40 -96 -7 -118 -35
-16 -51 -14 -74 9 -26 26 -25 68 2 97 23 25 48 29 79 12z"/>
<path d="M3268 1624 c-14 -15 -12 -25 29 -127 25 -62 48 -115 52 -120 4 -4 15
1 25 11 13 15 14 25 7 44 -8 22 -5 30 24 58 29 28 36 30 55 20 18 -9 25 -8 41
6 11 10 16 21 12 25 -9 8 -212 99 -222 99 -4 0 -14 -7 -23 -16z m87 -66 c29
-13 31 -21 11 -37 -12 -10 -18 -7 -31 18 -17 35 -16 36 20 19z"/>
<path d="M1794 1484 c-40 -20 -64 -62 -64 -116 0 -50 19 -82 60 -103 58 -30
125 -10 160 48 37 60 15 143 -45 171 -41 20 -71 20 -111 0z m101 -58 c24 -17
24 -69 0 -96 -25 -28 -79 -27 -99 2 -34 48 -7 108 48 108 18 0 41 -6 51 -14z"/>
<path d="M3045 1459 c-16 -11 -36 -24 -44 -28 -12 -7 -3 -28 44 -107 32 -55
60 -101 61 -103 6 -7 73 32 100 56 35 32 32 76 -6 105 -17 12 -30 31 -30 43 0
52 -69 71 -125 34z m73 -53 c3 -16 -12 -35 -28 -36 -11 0 -30 41 -24 51 10 16
48 6 52 -15z m52 -71 c10 -13 9 -19 -6 -36 l-19 -21 -17 22 c-27 33 -23 40 23
49 4 0 12 -6 19 -14z"/>
<path d="M2155 1348 c-3 -7 -16 -59 -29 -116 -17 -73 -21 -104 -13 -107 46
-15 114 -22 133 -15 31 12 46 44 39 84 -4 20 -2 36 4 40 17 11 13 71 -6 88
-10 8 -39 20 -65 27 -58 14 -58 14 -63 -1z m79 -53 c16 -17 12 -40 -8 -48 -22
-9 -34 7 -29 36 6 31 15 34 37 12z m-14 -100 c18 -21 5 -45 -25 -45 -25 0 -31
13 -19 44 8 20 28 21 44 1z"/>
<path d="M2720 1338 c-19 -5 -37 -11 -38 -13 -2 -2 8 -56 24 -120 21 -90 30
-115 41 -110 8 3 19 5 25 5 7 0 8 16 4 45 -4 25 -4 45 0 45 4 0 26 -15 48 -34
33 -26 48 -33 70 -29 l28 6 -43 43 c-34 34 -40 47 -31 56 22 22 14 75 -14 97
-29 23 -59 25 -114 9z m78 -65 c2 -14 -4 -26 -17 -33 -18 -9 -23 -7 -31 15
-15 40 -12 47 18 43 19 -2 28 -9 30 -25z"/>
<path d="M2431 1203 c-24 -60 -45 -114 -48 -120 -3 -9 5 -13 26 -13 24 0 32 5
37 25 6 22 11 25 55 25 44 0 49 -3 55 -25 5 -19 13 -25 35 -25 16 0 29 4 29 9
0 5 -21 59 -46 120 -43 103 -49 111 -74 111 -25 0 -30 -8 -69 -107z m77 -31
c-28 -5 -33 4 -19 35 l13 28 12 -30 c11 -27 11 -30 -6 -33z"/>
</g>
</svg>
