<svg xmlns="http://www.w3.org/2000/svg" width="666.667" height="666.667" version="1.0" viewBox="0 0 500 500"><path d="M226.5 72.6c-8.2 1.2-24.1 5-33 7.9-52.5 17.1-95.2 59.7-113 112.7-7.1 21.2-8 27.4-8 55.3 0 27.7 1.3 37.2 7.6 56.6 4 12.3 15.3 35.4 22.3 45.3 25.2 36 61.9 61.9 102.1 71.9 19.2 4.8 30.2 6 50.5 5.4 27.7-.9 47.2-5.5 70.7-16.7 52-24.8 88-71.2 99.5-128.4 3-14.6 3.2-48.8.5-63.3C411.9 146 358.5 90.6 286.5 74.9c-8.4-1.8-13.8-2.2-33.5-2.4-12.9-.2-24.8-.1-26.5.1m41.3 11.5c25 2.7 45.4 9.5 66.6 22.1 44.2 26.2 73.4 70 80.7 120.9 1.9 13.5 1.5 37.5-1 51.1-10.2 57.5-49.2 105.1-104.3 127.2-30.7 12.3-67.7 14.5-101.1 6C145 395.3 98.2 344.9 85.3 278.5c-2.7-14.3-2.5-45.5.5-60.2 7.3-36 26.1-69 52.7-92.5 36-31.7 82.8-46.8 129.3-41.7"/><path d="M253 108c0 3.3-.3 6-.6 6-.4 0-3.8-2.5-7.6-5.6s-7.1-5.4-7.3-5.2c-.3.2-.2 5.7.2 12.1.6 11.4.7 11.7 3 11.7 2.2 0 2.3-.4 2.3-6 0-5.4 1-7.5 2.4-5.2.3.4 3.2 3 6.5 5.6l6.1 4.7V102h-2.5c-2.4 0-2.5.3-2.5 6m-34-1.8c0 .7 1 6.1 2.1 12 2.2 10.7 2.7 11.6 6.2 10.2 1.2-.4 1.2-1.8-.4-9.7-2.9-14.3-2.7-13.7-5.4-13.7-1.4 0-2.5.6-2.5 1.2m55.3 2.2c-4.2 3.6-5.9 8.7-4.4 13.5 1.7 5.8 5 8.3 11.3 8.5 2.9.1 5.9.5 6.6.9.7.5 1.4.3 1.7-.5.5-1.5 2.4-9.9 2.5-10.9 0-.6-7.8-2.9-9.9-2.9-2.3 0-1.1 4 1.4 4.6 1.9.5 2.3.9 1.5 1.9-2.1 2.5-5.1 2.5-7.6 0-2.9-3-3.1-6.4-.3-9.9 2.5-3.2 7.1-3.5 9.2-.6 1.4 2 1.5 2 3.6.3l2.2-1.8-2.5-2.4c-1.7-1.6-4.1-2.5-7.4-2.9-4.1-.3-5.2 0-7.9 2.2m-81.3 5.3c-2.5.8-4.6 1.6-4.8 1.8-.5.5 8.2 22.5 9 22.5.3 0 2.7-.9 5.2-2 7.9-3.3 10.7-11 6.6-17.8-1.9-3.1-7.2-6.3-10.2-6.2-.7.1-3.3.8-5.8 1.7m10.4 6.5c.9 1.2 1.6 3.5 1.6 5 0 3-3.7 7.6-4.9 6.1-.7-.7-5.1-11.9-5.1-12.9 0-.2 1.5-.4 3.4-.4 2.5 0 3.9.7 5 2.2m108.7 9.5-6.1 9.8 2.2 1.8c2.2 1.8 2.2 1.8 4.6-2.2s2.4-4 5.2-2.6c4.1 2.1 7.6 1.9 10-.7 2.2-2.4 2.6-5.8 1-8.8-.9-1.7-8.7-7-10.3-7-.3 0-3.3 4.4-6.6 9.7m12.2 1.8c-.6 1.7-3.1 1.9-5.2.6-1.2-.8-1.2-1.4.4-3.7l1.8-2.8 1.8 2.3c1 1.2 1.5 2.9 1.2 3.6m-159.5-2.4c-6 4.4-6.1 13.7-.2 18.8 6.4 5.6 15.8 3.7 18.8-3.9 2.1-5.4.8-10.8-3.5-14.4-3.9-3.3-11-3.6-15.1-.5m11.6 5c4.8 3.8 2.2 11.9-3.9 11.9-5.9 0-9-9.1-4.3-12.4 3-2.1 5-2 8.2.5m158.8 11.1-8.1 9.3 2.2 1.7c1.2.9 2.4 1.4 2.8 1 .3-.4 3.8-4.4 7.9-9l7.3-8.3-2-2.1-2-2zm-194.1 5.3c-8 9.2-1.3 22.9 10.2 20.9 4.5-.7 12.3-7.2 11.5-9.6-1.1-3.2-3.4-3-7 .6-4.2 4.2-7 4.5-10.3 1.1-3.6-3.5-2.9-7.9 1.8-11.7 1.8-1.4 1.9-1.9.8-3.2-2-2.4-3.6-2-7 1.9m88.9-2.8c-28.1 4.8-55.3 23.8-70.3 49.3-5.8 9.7-6.5 12-3.8 12 1.4 0 2.7-1.5 4.5-5.1 12-23.8 35-42.7 60.7-49.9 28.2-7.8 58.1-2.7 82.4 14 12.2 8.5 25.6 24 31.3 36.2 1.2 2.7 2.3 3.8 3.9 3.8 2.1 0 2.2-.2 1.1-2.8-2.4-5.4-9.1-15.8-14.4-22.4-13.1-15.9-32.1-27.8-53.3-33.4-8.1-2.1-11.4-2.4-24.5-2.3-8.3.1-16.2.4-17.6.6m124.2 2.6c-.9 1-.7 1.9.4 3.5 1.4 2 1.2 2.4-5.6 7.9-3.8 3.1-7 6-7 6.3 0 .4.6 1.5 1.4 2.5 1.2 1.7 1.8 1.5 8.8-4.3 7.4-6 7.5-6.1 9.4-4.1 1.7 1.7 2.2 1.8 3.9.5 1.8-1.3 1.6-1.7-3.4-7.5-5.6-6.5-6.2-6.8-7.9-4.8"/><path d="M246 192.8v10.8l-13.8 1.2c-13.6 1.2-29.9 4-35.5 6.1-4.6 1.8-5.7 1.4-5.7-1.9v-3h15v-16h-7.3c-4.1 0-7.8-.5-8.4-1.1-.7-.7-1.9-.9-2.7-.6-1.3.5-1.6 2.7-1.6 13.5v12.9l-5.4 3.7c-9.8 6.7-9.6 5.2-4.8 44.1 2.4 19.1 4.8 34.8 5.7 36.4C188 311.5 215.3 320 249 320c30.3 0 57.7-7.8 65.3-18.6 2.5-3.6 2.9-5.7 6.2-32.2 1.9-15.6 3.5-31.9 3.5-36.2v-8l-4-3.9c-2.2-2.1-5.3-4.4-7-5.1-2.7-1.1-3-1.7-3-5.6V206h15v-16h-7.5c-4.3 0-7.5-.4-7.5-1s-.9-1-2-1c-1.9 0-2 .7-2 12 0 13 0 13.1-5.7 10.9-7.1-2.7-34.3-6.9-44.5-6.9H251v-8h15v-14h-20zm16-4.8c0 3-.1 3-5.5 3s-5.5 0-5.5-3 .1-3 5.5-3 5.5 0 5.5 3m-60.2 9.7c-.3 2.6-.7 2.8-5.5 3.1l-5.3.3v-3c0-3.1 0-3.1 5.6-3.1 5.4 0 5.5 0 5.2 2.7m119.2.3c0 3-.1 3-5.5 3s-5.5 0-5.5-3 .1-3 5.5-3 5.5 0 5.5 3m-46.1 12c3.5.5 6.6 1.1 6.9 1.5.3.3-.1 1.8-1 3.3-1.9 3-.7 2.9-19.8 1.3-11.8-.9-33.9-.2-40.3 1.4-2 .5-2.8.1-4.5-2.7l-2.1-3.3 2.9-.8c9.5-2.5 42.5-2.9 57.9-.7m-63.4 6.1c1.2 2.3 1.3 3 .3 3.3-.7.3-4.7 1.4-8.8 2.6-7.7 2.3-17.8 6.9-21.9 10.1-3.3 2.7-4.1 2.4-4.1-1.5 0-4.2 4.6-8.6 12.9-12.4 6.1-2.8 18.2-6.2 19.4-5.5.4.2 1.4 1.8 2.2 3.4m89.2-.5c7.9 2.7 13.8 6.1 17.1 9.9 3.3 3.7 3.7 5.1 2.3 7.3-.6 1-2.2.4-6.9-2.6-6-3.8-16-7.9-24.9-10.2-4.9-1.2-5.1-1.7-2.3-5.3 1.8-2.2 2.4-2.4 5.9-1.6 2.2.5 6.1 1.6 8.8 2.5m-27.5 6.1 2.8.8-4.7 7.1-4.6 7h-18.4l-18.4-.1-4.5-6.9c-2.4-3.8-4.2-7.1-4-7.3 2-2.1 45.3-2.6 51.8-.6m-52.7 8.3c2.5 3.9 4.5 7.4 4.5 7.8s-2.7 1.3-5.9 2-8.4 2.6-11.6 4.3l-5.7 3-5.1-1.7c-5.8-1.8-14.7-6.3-14.7-7.4 0-2.6 12.3-8.9 24.3-12.5 4.5-1.3 8.5-2.4 9-2.4.4-.1 2.7 3.1 5.2 6.9m69.3-5c12.5 3.5 27 10.9 25.6 13.1-.8 1.4-11.2 6.5-16.1 7.9-3.9 1.2-4.5 1.1-8.7-1.4-2.6-1.5-7.9-3.5-11.9-4.5-3.9-1-7.1-2.2-7-2.5.6-2.2 9-14.5 9.8-14.6.6 0 4.3.9 8.3 2m-99.3 23.1c3.8 1.6 5.5 2.8 5.5 4.1 0 2.7-2.6 2.3-10.8-1.7-6.6-3.1-7.2-3.7-7.2-6.4v-3l3.5 2.3c1.9 1.3 6 3.4 9 4.7m71.5-5.6c0 .6-5.4 1-14 1.1-13 .1-15.1-.2-13.3-2 1.1-1.1 27.3-.2 27.3.9m-33.6 2.6c-8.5 3.2-15.6 4.8-17.6 4-2.2-.8-2.1-.9 1.7-2.5 6.7-2.9 14.8-4.5 16.4-3.2 1.1.8 1 1.1-.5 1.7m48.8-1c2 .5 5.4 1.7 7.5 2.5 3.6 1.6 3.7 1.7 1.5 2.5-2.9 1.1-19.1-4-18.5-5.8.5-1.3 1.3-1.2 9.5.8m41.6.1c-.3 2.4-5.4 5.8-12.6 8.2-4.2 1.5-4.3 1.5-4-.6.2-1.3 1.7-2.6 4.3-3.6 2.2-.9 5.6-2.6 7.5-3.8 4.4-2.9 5.2-2.9 4.8-.2m-49.3 5.9c3.9 1.3 3.8 1.3-7.5 2.2-11.1.9-38.7.1-37.6-1.1 3.1-3 36.4-3.8 45.1-1.1m27.5 3.3c0 2.1-.7 2.5-7.7 3.9-4.3.9-10.4 1.9-13.5 2.3-5.4.6-5.8.5-5.8-1.4 0-1.8.8-2.2 5.8-2.7 4.3-.5 19.2-3.6 21-4.4.1-.1.2 1 .2 2.3m-88.5 0c3.3.8 8.8 1.8 12.3 2.2 5.3.6 6.2.9 6.2 2.7s-.4 1.9-6.2 1.3c-8.1-.8-16.8-2.6-19-3.7-2.1-1.1-2.4-3.9-.5-3.9.6 0 3.9.7 7.2 1.4m107 20.7c-1.4 11.6-3 22-3.5 22.9-1.2 2.2-7.7 8-9 8-.6 0-1.1-8.4-1.2-20.3-.3-20-.3-20.2-2.5-20.5l-2.3-.3-.2 22.2-.3 22.3-3 .9c-6.1 1.8-19.1 4.6-21.2 4.7H270v-22c0-21.3-.1-22-2-22s-2 .7-2 22.5-.1 22.5-2 22.5-2-.7-2-12.8c0-13.9-1-17.2-6.5-20.8-5.3-3.5-14.7-1.3-17.8 4-.7 1.2-1.4 7.8-1.7 15.6-.5 12.7-.6 13.5-2.5 13.5s-2-.8-2.3-22.3c-.2-21.4-.3-22.2-2.2-22.2s-2 .7-2 22v22h-2.4c-3.5 0-21.6-4.8-23.2-6.1-1.1-.9-1.4-5.5-1.4-22.5 0-20.7-.1-21.4-2-21.4s-2 .7-2 20.5c0 14.8-.3 20.5-1.2 20.5-1.7 0-7.6-4.8-9-7.3-1.1-1.9-6.9-43.7-6.3-44.5.2-.2 2 .5 4.2 1.6 19 9.7 65.4 13.5 98.8 8.2 10-1.6 25.2-5.8 30.3-8.4 2.6-1.3 4.8-2.3 5-2.1s-.8 9.9-2.3 21.6m-49.7-15.4c-.3 1.6-1.9 1.8-17.3 1.8s-17-.2-17.3-1.8 1-1.7 17.3-1.7 17.6.1 17.3 1.7m-11.1 27.7 2.8 2.4v26.7l-3.2.3-3.2.3-.3-11.3c-.3-10.5-.4-11.3-2.3-11.3s-2 .8-2.3 11.3l-.3 11.3-2.7-.3-2.7-.3-.3-11.5c-.1-6.3 0-12.5.3-13.8 1.5-6.2 9-8.2 14.2-3.8"/><path d="M334.1 297.9c-11.8 23.3-36.1 42.6-62.6 49.7-5.6 1.5-10.5 1.9-24.5 1.9-16.4 0-18-.2-26.4-2.8-9-2.9-17.5-6.6-24.3-10.8-12.8-7.7-27.9-23.8-34.6-36.6-2.5-4.9-3.7-6.3-5.5-6.3H154l2.6 5.2c11 21.8 31 40.1 53.5 49.1 30.4 12.1 64.1 8.8 92.4-9.1 13.3-8.5 28.4-25 35.4-38.9 3.7-7.1 3.7-7.3 1.1-7.3-1.4 0-2.8 1.7-4.9 5.9m-194.8 15.9c-5.1 3.1-9.3 6.1-9.3 6.7 0 .5.5 1.7 1 2.5.8 1.3 1.5 1.2 5.1-.9 3.4-1.9 4.3-2.1 5-1 2.2 3.8 3.5 5 5.2 4.3 2.1-.8 2.2-2.3.1-5.3-1.5-2.1-1.5-2.4.1-3.9 1.6-1.6 1.8-1.6 3 .3 3.9 5.6 3.9 5.6 5.8 4.2 1.8-1.2 1.7-1.6-1.5-7-1.8-3.1-3.7-5.6-4.3-5.6-.5 0-5.2 2.6-10.2 5.7m205.3 1.8c-2.5 4.1-4.4 7.9-4.1 8.5 1.2 1.9 4.1.8 5.8-2.1 1-1.7 2.1-3 2.5-3s2.9 4.3 5.5 9.6l4.8 9.6 5.5-8.7c3-4.8 5.3-8.9 5.2-9-.2-.1-1.3-.5-2.4-.9-1.8-.5-2.6.1-4.7 3.6l-2.5 4.3-4.8-9.8c-2.7-5.3-5.1-9.7-5.5-9.7-.3 0-2.7 3.4-5.3 7.6m-192.1 16.6c-6.4 5-6.8 13.6-.9 18.8 5.8 5 13.6 3.8 18.1-2.9 3.7-5.5 2.4-12.8-2.9-16.5-3.4-2.4-10.9-2.1-14.3.6m10.6 3.9c4.5 2.3 4 9.6-.7 11.8-3.5 1.6-5.1 1.4-7.4-.9-2.6-2.6-2.5-6.8.2-9.7 2.3-2.5 4.8-2.9 7.9-1.2m163.7 1.5c-1.4 1.5-1.2 2.5 2.9 12.7 2.5 6.2 4.8 11.5 5.2 12 .4.4 1.5-.1 2.5-1.1 1.3-1.5 1.4-2.5.7-4.4-.8-2.2-.5-3 2.4-5.8s3.6-3 5.5-2c1.8.9 2.5.8 4.1-.6 1.1-1 1.6-2.1 1.2-2.5-.9-.8-21.2-9.9-22.2-9.9-.4 0-1.4.7-2.3 1.6m8.7 6.6c2.9 1.3 3.1 2.1 1.1 3.7-1.2 1-1.8.7-3.1-1.8-1.7-3.5-1.6-3.6 2-1.9m-156.1 7.4c-4 2-6.4 6.2-6.4 11.6 0 5 1.9 8.2 6 10.3 5.8 3 12.5 1 16-4.8 3.7-6 1.5-14.3-4.5-17.1-4.1-2-7.1-2-11.1 0m10.1 5.8c2.4 1.7 2.4 6.9 0 9.6-2.5 2.8-7.9 2.7-9.9-.2-3.4-4.8-.7-10.8 4.8-10.8 1.8 0 4.1.6 5.1 1.4m115-3.3c-1.6 1.1-3.6 2.4-4.4 2.8-1.2.7-.3 2.8 4.4 10.7 3.2 5.5 6 10.1 6.1 10.3.6.7 7.3-3.2 10-5.6 3.5-3.2 3.2-7.6-.6-10.5-1.7-1.2-3-3.1-3-4.3 0-5.2-6.9-7.1-12.5-3.4m7.3 5.3c.3 1.6-1.2 3.5-2.8 3.6-1.1 0-3-4.1-2.4-5.1 1-1.6 4.8-.6 5.2 1.5m5.2 7.1c1 1.3.9 1.9-.6 3.6l-1.9 2.1-1.7-2.2c-2.7-3.3-2.3-4 2.3-4.9.4 0 1.2.6 1.9 1.4m-101.5-1.3c-.3.7-1.6 5.9-2.9 11.6-1.7 7.3-2.1 10.4-1.3 10.7 4.6 1.5 11.4 2.2 13.3 1.5 3.1-1.2 4.6-4.4 3.9-8.4-.4-2-.2-3.6.4-4 1.7-1.1 1.3-7.1-.6-8.8-1-.8-3.9-2-6.5-2.7-5.8-1.4-5.8-1.4-6.3.1m7.9 5.3c1.6 1.7 1.2 4-.8 4.8-2.2.9-3.4-.7-2.9-3.6.6-3.1 1.5-3.4 3.7-1.2m-1.4 10c1.8 2.1.5 4.5-2.5 4.5-2.5 0-3.1-1.3-1.9-4.4.8-2 2.8-2.1 4.4-.1m50-14.3c-1.9.5-3.7 1.1-3.8 1.3-.2.2.8 5.6 2.4 12 2.1 9 3 11.5 4.1 11 .8-.3 1.9-.5 2.5-.5.7 0 .8-1.6.4-4.5-.4-2.5-.4-4.5 0-4.5s2.6 1.5 4.8 3.4c3.3 2.6 4.8 3.3 7 2.9l2.8-.6-4.3-4.3c-3.4-3.4-4-4.7-3.1-5.6 2.2-2.2 1.4-7.5-1.4-9.7-2.9-2.3-5.9-2.5-11.4-.9m7.8 6.5c.2 1.4-.4 2.6-1.7 3.3-1.8.9-2.3.7-3.1-1.5-1.5-4-1.2-4.7 1.8-4.3 1.9.2 2.8.9 3 2.5m-36.7 7c-2.4 6-4.5 11.4-4.8 12-.3.9.5 1.3 2.6 1.3 2.4 0 3.2-.5 3.7-2.5.6-2.2 1.1-2.5 5.5-2.5s4.9.3 5.5 2.5c.5 1.9 1.3 2.5 3.5 2.5 1.6 0 2.9-.4 2.9-.9s-2.1-5.9-4.6-12c-4.3-10.3-4.9-11.1-7.4-11.1s-3 .8-6.9 10.7m7.7 3.1c-2.8.5-3.3-.4-1.9-3.5l1.3-2.8 1.2 3c1.1 2.7 1.1 3-.6 3.3"/></svg>